<svg width="32" height="32" fill="none" xmlns="http://www.w3.org/2000/svg"><path fill-rule="evenodd" clip-rule="evenodd" d="M20.138 13.924c1.641-1.184 2.714-3.148 2.714-5.372C22.852 4.93 20.01 2 16.5 2c-3.51 0-6.352 2.931-6.352 6.552 0 2.224 1.073 4.188 2.714 5.372a6.17 6.17 0 0 0 3.638 1.18 6.17 6.17 0 0 0 3.638-1.18Zm.454 2.088a8.791 8.791 0 0 0-1.618-.15h-4.948c-.552 0-1.093.051-1.618.15C8.198 16.799 5 20.604 5 25.172v3.793C5 29.552 5.435 30 6.003 30h20.994c.568 0 1.003-.448 1.003-1.035v-3.793c0-4.568-3.198-8.373-7.408-9.16ZM16.5 4c-2.348 0-4.352 1.977-4.352 4.552 0 2.575 2.004 4.551 4.352 4.551 2.348 0 4.352-1.976 4.352-4.551S18.848 4 16.5 4Zm2.474 13.862h-4.948C10.208 17.862 7 21.08 7 25.172V28h19v-2.828c0-4.092-3.208-7.31-7.026-7.31Z" fill="#fff"/></svg>