<svg width="32" height="32" fill="none" xmlns="http://www.w3.org/2000/svg"><path fill-rule="evenodd" clip-rule="evenodd" d="M11.999 24a3.001 3.001 0 0 0 0 6 3.001 3.001 0 0 0 0-6Zm0 2a1 1 0 1 1 0 2.001 1 1 0 0 1 0-2Zm11.999-2a3.001 3.001 0 0 0 0 6 3.001 3.001 0 0 0 0-6Zm0 2a1 1 0 1 1 0 2.001 1 1 0 0 1 0-2ZM4.292 3.836c.296 1.775 3.391 16.793 3.391 16.793A3 3 0 0 0 10.617 23h14.766a3 3 0 0 0 2.934-2.371l2.142-10A2.999 2.999 0 0 0 27.526 7H6.847l-.582-3.493A3 3 0 0 0 3.306 1H2a1 1 0 0 0 0 2h1.306c.489 0 .906.353.986.836Zm24.212 6.374-2.143 10a1 1 0 0 1-.978.79H10.617a1 1 0 0 1-.978-.79L7.237 9h20.289a1 1 0 0 1 .978 1.21Z" fill="#fff"/></svg>