<svg width="32" height="32" fill="none" xmlns="http://www.w3.org/2000/svg"><path d="M8.7 4c-1.977 0-3.95.762-5.451 2.267-3 3.01-2.997 7.875 0 10.888l11.468 11.524a1.09 1.09 0 0 0 .777.321 1.102 1.102 0 0 0 .776-.32c3.827-3.84 7.653-7.674 11.48-11.514 3-3.01 3-7.877 0-10.888-3-3.01-7.913-3.01-10.913 0l-1.338 1.34-1.348-1.351A7.679 7.679 0 0 0 8.7 4Zm0 2.122a5.48 5.48 0 0 1 3.898 1.641l2.13 2.133a1.088 1.088 0 0 0 .777.321 1.102 1.102 0 0 0 .776-.32l2.108-2.123c2.182-2.19 5.626-2.19 7.808 0a5.565 5.565 0 0 1 0 7.884c-3.567 3.58-7.13 7.164-10.698 10.743L4.801 15.647a5.567 5.567 0 0 1 0-7.884A5.483 5.483 0 0 1 8.7 6.122Z" fill="#fff"/></svg>